<?xml version="1.0" encoding="UTF-8" standalone="no"?>
<!-- Created with Inkscape (http://www.inkscape.org/) -->

<svg
   width="105mm"
   height="74mm"
   viewBox="0 0 105 74"
   version="1.1"
   id="svg1"
   inkscape:version="1.4 (86a8ad7, 2024-10-11)"
   sodipodi:docname="white_vector.svg"
   xmlns:inkscape="http://www.inkscape.org/namespaces/inkscape"
   xmlns:sodipodi="http://sodipodi.sourceforge.net/DTD/sodipodi-0.dtd"
   xmlns="http://www.w3.org/2000/svg"
   xmlns:svg="http://www.w3.org/2000/svg">
  <sodipodi:namedview
     id="namedview1"
     pagecolor="#ffffff"
     bordercolor="#000000"
     borderopacity="0.25"
     inkscape:showpageshadow="2"
     inkscape:pageopacity="0.0"
     inkscape:pagecheckerboard="true"
     inkscape:deskcolor="#d1d1d1"
     inkscape:document-units="mm"
     inkscape:zoom="2.2716751"
     inkscape:cx="233.74822"
     inkscape:cy="269.18462"
     inkscape:window-width="3840"
     inkscape:window-height="2054"
     inkscape:window-x="5749"
     inkscape:window-y="-11"
     inkscape:window-maximized="1"
     inkscape:current-layer="layer1" />
  <defs
     id="defs1" />
  <g
     inkscape:label="Layer 1"
     inkscape:groupmode="layer"
     id="layer1">
    <path
       style="fill:#ffffff;stroke-width:0.0582353"
       d="M 27.322651,48.758306 C 30.042583,44.047738 50.592834,8.9092908 52.527645,5.6608055 c 0.12047,-0.2022634 0.137742,-0.2121165 0.204171,-0.1164696 0.115779,0.1667007 1.52111,2.6449311 1.633154,2.879979 l 0.1016,0.2131404 -7.777634,13.3265657 c -4.277698,7.329611 -9.690272,16.602302 -12.027939,20.60598 l -4.250304,7.279409 -1.8679,0.01537 -1.8679,0.01537 z"
       id="path1" />
    <path
       style="fill:#ffffff;stroke-width:0.0582353"
       d="m 33.13588,49.85476 c 0,-0.04097 1.248257,-2.349333 5.875946,-10.866231 l 0.996733,-1.834412 5.080574,0.01984 5.080571,0.01984 1.306873,-2.058064 c 7.927446,-12.484161 7.479644,-11.764031 7.414868,-11.924191 -0.12623,-0.312108 -3.254443,-6.024679 -3.309098,-6.042898 -0.03147,-0.01048 -1.629069,2.60052 -3.550222,5.802243 l -3.493008,5.821312 -1.855203,0.0026 c -1.742874,0.0024 -1.852938,-0.0036 -1.817851,-0.09932 0.02053,-0.05605 2.188988,-3.685355 4.818763,-8.065119 l 4.781415,-7.963155 0.365311,-0.204295 c 0.328633,-0.183783 0.409911,-0.204293 0.809492,-0.204293 0.324075,0 0.502605,0.03022 0.660244,0.111765 0.530432,0.274386 0.629354,0.435727 3.413784,5.567739 l 2.654927,4.893331 -0.0011,0.580787 -0.0011,0.580789 -5.227161,8.211177 -5.227158,8.211177 -5.009661,-0.0232 -5.009658,-0.0232 -0.501245,0.925854 c -0.275685,0.509222 -1.027242,1.893779 -1.670127,3.076795 -0.642881,1.183018 -1.154083,2.165739 -1.135996,2.183823 0.0181,0.0181 8.682598,0.04599 19.254475,0.062 l 19.221595,0.02912 0.805453,1.572352 c 0.443,0.864793 0.805921,1.592009 0.806495,1.61603 5.29e-4,0.02402 -10.245458,0.04368 -22.768957,0.04368 -12.523501,0 -22.770001,-0.01069 -22.770001,-0.02376 z"
       id="path2" />
    <path
       style="fill:#ffffff;stroke-width:0.0582353"
       d="m 49.394229,45.292502 -7.763708,-0.01497 0.04082,-0.130818 c 0.02246,-0.07195 0.364967,-0.779412 0.761141,-1.572141 l 0.720317,-1.441323 h 13.859775 c 11.051441,0 13.858845,-0.01474 13.855189,-0.0728 -0.0026,-0.04004 -0.140126,-0.400367 -0.30579,-0.800735 l -0.301204,-0.72794 -8.139819,-0.03546 c -4.476898,-0.0195 -8.15508,-0.05072 -8.173736,-0.06938 -0.04262,-0.04262 -0.0069,-0.101725 2.39857,-3.971629 3.96294,-6.375495 6.202759,-9.924632 6.444131,-10.211125 0.1002,-0.118936 0.291634,-0.237146 0.524115,-0.323646 0.500013,-0.186042 0.932016,-0.137237 1.392468,0.15731 0.309057,0.1977 0.407199,0.333172 1.95702,2.70133 2.892702,4.420113 3.801184,5.836436 3.801184,5.92605 0,0.01857 -0.843857,0.02684 -1.875237,0.01839 l -1.875237,-0.01537 -1.380252,-2.094574 c -0.75914,-1.152017 -1.402466,-2.101736 -1.429615,-2.110486 -0.04577,-0.01476 -1.134883,1.738686 -3.243662,5.222219 l -0.864889,1.428724 0.60283,0.03654 c 0.331554,0.02011 2.961356,0.04 5.844002,0.04423 l 5.241179,0.0077 0.291174,0.168724 c 0.160147,0.0928 0.386461,0.269444 0.50292,0.392542 0.11911,0.125904 0.664059,1.051803 1.245672,2.116465 0.568663,1.040956 1.462651,2.671334 1.986642,3.623061 0.523989,0.951728 0.952709,1.744457 0.952709,1.761617 0,0.02885 -7.438803,0.02543 -27.068711,-0.01246 z"
       id="path4" />
    <path
       style="fill:#ffffff;stroke-width:0.0582353"
       d="m 15.039264,66.434488 -0.13103,-0.02524 v -2.936833 -2.936832 h -1.310293 -1.310296 v -1.106469 -1.106472 h 3.872648 3.872648 v 1.106472 1.106469 h -1.310296 -1.310293 v 2.970001 2.97 l -1.121029,-0.0079 c -0.616567,-0.0044 -1.179992,-0.01929 -1.252059,-0.03317 z"
       id="path5" />
    <path
       style="fill:#ffffff;stroke-width:0.0582353"
       d="m 23.536977,66.024265 c -0.09529,-0.248229 -0.72671,-2.010574 -1.403155,-3.916325 -0.676444,-1.905749 -1.253958,-3.521742 -1.283364,-3.591092 -0.05167,-0.12187 -0.03749,-0.127357 0.423479,-0.163798 0.262319,-0.02074 0.870032,-0.02951 1.350473,-0.0195 l 0.87353,0.0182 0.36852,1.135589 c 0.202686,0.624573 0.517157,1.592355 0.698825,2.150626 0.181666,0.558271 0.358889,1.024218 0.393827,1.035439 0.04954,0.0159 0.944047,-2.58668 1.430795,-4.162925 l 0.05888,-0.190682 0.93848,0.01598 0.93848,0.01598 0.7308,2.252329 c 0.401942,1.238782 0.744784,2.266056 0.76187,2.282833 0.01709,0.01678 0.345649,-0.99677 0.730139,-2.252329 l 0.699072,-2.282833 1.297818,-0.01569 1.297818,-0.01569 -0.04019,0.132156 c -0.06085,0.200078 -1.82136,5.196152 -2.344909,6.654507 l -0.459944,1.281176 -1.07746,0.01582 -1.077458,0.01582 -0.180474,-0.510813 c -0.09926,-0.280948 -0.392153,-1.119547 -0.650873,-1.863555 -0.25872,-0.744009 -0.517924,-1.464644 -0.576011,-1.601412 l -0.105608,-0.248669 -0.09009,0.174646 c -0.08467,0.164129 -1.171598,3.271785 -1.326176,3.791689 l -0.07118,0.239389 -0.473652,0.03688 c -0.260509,0.02029 -0.740357,0.03703 -1.066332,0.03723 l -0.59268,2.64e-4 z"
       id="path6" />
    <path
       style="fill:#ffffff;stroke-width:0.0582353"
       d="m 34.514116,66.436764 c -0.02135,-0.02135 -0.03882,-1.855764 -0.03882,-4.07647 v -4.037648 h 3.494117 3.494119 v 0.99 0.989999 h -2.24206 -2.242058 v 0.582353 0.582354 h 2.009118 2.009117 v 0.844412 0.844412 h -2.009117 -2.009118 v 0.640588 0.640588 h 2.271175 2.271178 v 1.019117 1.01912 h -3.484412 c -1.916427,0 -3.501882,-0.01746 -3.523236,-0.03883 z"
       id="path7" />
    <path
       style="fill:#ffffff;stroke-width:0.0582353"
       d="m 42.406941,66.405704 c -0.053,-0.053 -0.06988,-1.037881 -0.06988,-4.076469 v -4.006589 h 1.281179 1.281176 v 2.970001 2.969998 h 2.009116 2.009119 v 1.106472 1.106472 h -3.220413 c -2.427116,0 -3.237624,-0.01723 -3.290292,-0.06988 z"
       id="path8" />
    <path
       style="fill:#ffffff;stroke-width:0.0582353"
       d="m 50.98923,66.344559 c -0.09832,-0.150143 -1.383196,-3.108415 -2.611554,-6.012794 l -0.837409,-1.980001 0.848837,-0.01828 c 0.46686,-0.01005 1.085871,-0.0016 1.375582,0.0191 l 0.526745,0.03739 0.51484,1.349431 c 1.024771,2.685992 1.392203,3.594645 1.446271,3.576621 0.0303,-0.01011 0.118821,-0.174669 0.196725,-0.365717 0.132281,-0.324406 1.263756,-3.263879 1.618779,-4.205444 l 0.159195,-0.422206 h 1.302067 1.30207 l -0.292859,0.713383 c -0.757716,1.845741 -3.041251,7.109235 -3.170761,7.30853 -0.08336,0.128278 -0.108323,0.131029 -1.188935,0.131029 -1.08042,0 -1.105603,-0.0028 -1.189593,-0.131029 z"
       id="path9" />
    <path
       style="fill:#ffffff;stroke-width:0.0582353"
       d="m 57.463674,66.444558 c -0.02402,-0.02564 -0.04368,-1.863558 -0.04368,-4.084264 v -4.037648 h 3.494117 3.494117 v 0.99 0.989999 H 62.16617 59.924112 v 0.582353 0.582354 h 2.009116 2.009119 v 0.844412 0.844412 h -2.009119 -2.009116 v 0.640588 0.640588 l 2.314852,-1.3e-5 2.314853,-1.6e-5 -0.02037,0.975456 c -0.01119,0.536501 -0.02764,0.983162 -0.03654,0.992581 -0.03967,0.04202 -6.994286,0.08078 -7.033241,0.0392 z"
       id="path10" />
    <path
       style="fill:#ffffff;stroke-width:0.0582353"
       d="m 66.347234,66.430631 c -0.05324,-0.0349 -0.01513,-0.367898 0.158356,-1.383591 0.215395,-1.261089 0.318982,-1.847398 0.938527,-5.312188 l 0.252521,-1.412206 h 3.16021 c 1.738114,0 3.159569,0.01966 3.158786,0.04368 -0.0013,0.03833 -0.05603,0.301712 -0.143486,0.689816 -0.02728,0.121092 -0.04779,0.122275 -2.68284,0.154932 -1.460442,0.0181 -2.664431,0.04199 -2.675536,0.05309 -0.02432,0.02432 -0.494951,2.600595 -0.494951,2.709339 0,0.06155 0.46455,0.0762 2.416765,0.0762 h 2.416765 v 0.148918 c 0,0.0819 -0.02833,0.261411 -0.06295,0.398899 l -0.06294,0.249981 -0.737791,0.03763 c -0.405783,0.02069 -1.366729,0.04033 -2.135436,0.04363 -0.768704,0.0033 -1.540639,0.02304 -1.71541,0.04391 l -0.317765,0.03792 -0.273753,1.470861 c -0.150564,0.808971 -0.308936,1.582047 -0.351941,1.717939 l -0.07819,0.247084 -0.349411,0.01506 c -0.192175,0.0083 -0.380963,-0.0056 -0.419529,-0.0309 z"
       id="path11" />
    <path
       style="fill:#ffffff;stroke-width:0.0582353"
       d="m 73.725881,66.442582 c 0,-0.187209 1.299977,-7.768169 1.374926,-8.018023 0.02577,-0.08593 0.103037,-0.101913 0.492527,-0.101913 0.445672,0 0.461957,0.0048 0.461957,0.136441 0,0.124232 -0.487484,2.962973 -1.12119,6.528945 -0.239207,1.34606 -0.253026,1.396511 -0.393219,1.435518 -0.17849,0.04966 -0.815001,0.06453 -0.815001,0.01902 z"
       id="path12" />
    <path
       style="fill:#ffffff;stroke-width:0.0582353"
       d="m 79.426665,66.315442 c -0.180877,-0.470051 -2.152377,-7.3239 -2.238015,-7.78038 l -0.03985,-0.212416 0.370451,7.94e-4 c 0.643607,0.0013 0.570693,-0.103034 1.009457,1.445554 0.853231,3.01144 1.555197,5.398812 1.601258,5.445868 0.02669,0.02726 0.178284,-0.143073 0.336876,-0.378528 0.215008,-0.319212 2.665301,-4.16288 4.068873,-6.382661 0.07587,-0.119999 0.12686,-0.131029 0.605624,-0.131029 0.287528,0 0.522776,0.01315 0.522776,0.02923 0,0.04247 -1.987092,3.068675 -3.795135,5.779738 l -1.563227,2.343973 h -0.408731 c -0.392126,0 -0.411234,-0.0065 -0.470358,-0.160147 z"
       id="path13" />
    <path
       style="fill:#ffffff;stroke-width:0.0582353"
       d="m 85.256468,66.325829 c 0,-0.08237 0.1959,-1.307491 0.435332,-2.722499 0.665316,-3.931941 0.884748,-5.164291 0.927079,-5.206624 0.06372,-0.06372 6.441119,-0.09636 6.441119,-0.03297 0,0.03077 -0.02938,0.202229 -0.06528,0.381011 -0.05064,0.252171 -0.09308,0.332517 -0.189265,0.358327 -0.06819,0.01831 -1.296199,0.03363 -2.728904,0.03407 l -2.604921,7.94e-4 -0.03021,0.131029 c -0.04156,0.180261 -0.437894,2.444536 -0.437894,2.501691 0,0.02535 1.123471,0.0461 2.496601,0.0461 h 2.496597 l -0.05155,0.27662 c -0.02835,0.152138 -0.06605,0.322476 -0.08376,0.378528 -0.03001,0.09497 -0.201776,0.101913 -2.520188,0.101913 h -2.487977 l -0.249111,1.461635 c -0.137009,0.803899 -0.239307,1.471435 -0.227327,1.483415 0.01199,0.01199 1.261203,0.03988 2.776053,0.06199 l 2.75427,0.04021 -0.03664,0.229132 c -0.02016,0.126024 -0.07389,0.318291 -0.119422,0.42726 l -0.08278,0.198125 h -3.205911 -3.205914 z"
       id="path14" />
  </g>
</svg>
