<?xml version="1.0" encoding="UTF-8"?>
<svg version="1.1" xmlns="http://www.w3.org/2000/svg" width="2145" height="472">
<path d="M0 0 C1.26191162 0.00410889 2.52382324 0.00821777 3.82397461 0.01245117 C76.6904878 0.43469466 132.26324024 24.53415498 183.83935547 76.21875 C189.12370153 81.58325831 194.01723435 87.11459377 198.5625 93.125 C199.19333496 93.94919434 199.19333496 93.94919434 199.83691406 94.79003906 C207.02156595 104.20601346 213.50269235 113.95258051 219.5625 124.125 C219.9735498 124.80336914 220.38459961 125.48173828 220.80810547 126.18066406 C233.85956645 147.86005298 242.37252668 172.03553403 247.8125 196.6875 C247.96380371 197.35765137 248.11510742 198.02780273 248.27099609 198.71826172 C251.46283801 214.21582635 251.94063671 230.04584207 251.875 245.8125 C251.87317719 246.72842926 251.87135437 247.64435852 251.86947632 248.58804321 C251.82150643 262.95385253 251.19540998 276.97051743 248.5625 291.125 C248.39621094 292.06182617 248.22992187 292.99865234 248.05859375 293.96386719 C241.42422658 330.48974423 225.96709766 364.42959525 200.68359375 391.81640625 C198.73251655 393.93995436 196.86281718 396.11175681 195 398.3125 C191.49940809 402.31891139 187.6561695 405.73739459 183.5625 409.125 C182.87027344 409.71667969 182.17804687 410.30835938 181.46484375 410.91796875 C133.28312022 451.00053464 63.19155274 470.53334621 1.125 465.375 C-45.90833365 460.97076893 -91.53470571 443.17301393 -127.4375 412.125 C-128.19546875 411.47789062 -128.9534375 410.83078125 -129.734375 410.1640625 C-132.35350341 407.87012789 -134.90890781 405.51757795 -137.4375 403.125 C-138.05931152 402.5371875 -138.68112305 401.949375 -139.32177734 401.34375 C-159.61139717 381.9992839 -175.79495077 359.67812752 -187.4375 334.125 C-187.7670166 333.40940918 -188.0965332 332.69381836 -188.43603516 331.95654297 C-201.69689097 302.8410054 -209.67490711 270.23165381 -209.4375 238.125 C-210.9212915 238.8974707 -210.9212915 238.8974707 -212.43505859 239.68554688 C-216.09683623 241.59053028 -219.76136395 243.49016883 -223.42675781 245.38818359 C-225.01443105 246.21126511 -226.60134917 247.03580488 -228.1875 247.86181641 C-230.46418664 249.04711639 -232.74351486 250.2271891 -235.0234375 251.40625 C-235.73494965 251.77810425 -236.44646179 252.1499585 -237.17953491 252.53308105 C-242.20975659 255.125 -242.20975659 255.125 -244.4375 255.125 C-244.4375 250.505 -244.4375 245.885 -244.4375 241.125 C-269.6825 241.62 -269.6825 241.62 -295.4375 242.125 C-295.375625 245.92 -295.31375 249.715 -295.25 253.625 C-295.03600581 297.07405127 -307.23933308 340.52392014 -332.4375 376.125 C-333.04779053 376.9897998 -333.04779053 376.9897998 -333.67041016 377.87207031 C-338.52201779 384.65200828 -343.90215087 390.88866616 -349.5625 397 C-350.40518433 397.90999756 -350.40518433 397.90999756 -351.26489258 398.83837891 C-363.75737539 412.06229723 -378.78839021 423.24980205 -394.63867188 432.11621094 C-396.37927199 433.09234553 -398.10405633 434.09651786 -399.828125 435.1015625 C-456.20306051 466.82826388 -528.0181438 475.16846911 -590.0793457 458.14086914 C-623.73883151 448.36043761 -654.17596476 430.93834255 -679.9921875 407.34765625 C-682.33901662 405.21451605 -684.72784586 403.13867927 -687.125 401.0625 C-691.28244179 397.36295826 -694.88202504 393.39748342 -698.4375 389.125 C-699.63052734 387.72894531 -699.63052734 387.72894531 -700.84765625 386.3046875 C-734.99052215 346.19851283 -755.88283522 292.00855773 -755.4375 239.125 C-756.46222412 239.63998047 -757.48694824 240.15496094 -758.54272461 240.68554688 C-762.33045519 242.58843506 -766.1194912 244.48871084 -769.90893555 246.38818359 C-771.55154814 247.21201048 -773.19380169 248.03655366 -774.83569336 248.86181641 C-777.19031142 250.04516292 -779.54619185 251.22596109 -781.90234375 252.40625 C-782.64089096 252.77810425 -783.37943817 253.1499585 -784.1403656 253.53308105 C-789.32362829 256.125 -789.32362829 256.125 -790.4375 256.125 C-790.4375 251.505 -790.4375 246.885 -790.4375 242.125 C-812.5475 242.125 -834.6575 242.125 -857.4375 242.125 C-858.0975 248.725 -858.7575 255.325 -859.4375 262.125 C-860.11366884 266.33880582 -860.81329043 270.45948174 -861.6875 274.625 C-861.90365967 275.67196045 -862.11981934 276.7189209 -862.3425293 277.79760742 C-867.22889991 300.73132191 -875.39384381 322.45594753 -886.4375 343.125 C-886.78393555 343.77919922 -887.13037109 344.43339844 -887.48730469 345.10742188 C-897.19699172 363.31863726 -909.11461812 379.39595119 -923.1015625 394.56640625 C-925.10063563 396.75602649 -927.02624142 398.98430615 -928.9375 401.25 C-963.75926339 441.06933128 -1018.61238437 463.53385748 -1070.4375 467.125 C-1071.21609375 467.18381348 -1071.9946875 467.24262695 -1072.796875 467.30322266 C-1087.06905379 468.25894891 -1099.80835574 465.14217421 -1113.4375 461.125 C-1114.39124512 460.8470459 -1115.34499023 460.5690918 -1116.32763672 460.28271484 C-1157.31315703 448.18897531 -1196.66674199 428.7659889 -1229.4375 401.125 C-1229.98051758 400.6707666 -1230.52353516 400.2165332 -1231.08300781 399.74853516 C-1244.36403557 388.60414588 -1256.81268915 376.87162506 -1267.4375 363.125 C-1268.47743087 361.81345807 -1269.51782989 360.50228726 -1270.55859375 359.19140625 C-1277.62185141 350.21762905 -1283.90093453 341.10928926 -1289.4375 331.125 C-1289.8406543 330.41150391 -1290.24380859 329.69800781 -1290.65917969 328.96289062 C-1306.23903659 301.25206135 -1315.20892899 270.70745706 -1318.4375 239.125 C-1319.39640137 239.6096875 -1320.35530273 240.094375 -1321.34326172 240.59375 C-1324.89332039 242.38684673 -1328.44600267 244.17468974 -1331.99951172 245.9609375 C-1333.5386475 246.73554162 -1335.077063 247.51157862 -1336.61474609 248.2890625 C-1338.82202451 249.40479833 -1341.03182154 250.5153961 -1343.2421875 251.625 C-1343.93182587 251.97498047 -1344.62146423 252.32496094 -1345.33200073 252.68554688 C-1350.20975659 255.125 -1350.20975659 255.125 -1352.4375 255.125 C-1352.4375 250.835 -1352.4375 246.545 -1352.4375 242.125 C-1376.5275 242.125 -1400.6175 242.125 -1425.4375 242.125 C-1427.0875 250.375 -1428.7375 258.625 -1430.4375 267.125 C-1431.58580581 271.55893444 -1432.73046359 275.84641303 -1434.125 280.1875 C-1434.45894775 281.24783447 -1434.79289551 282.30816895 -1435.13696289 283.40063477 C-1438.87021837 294.93722344 -1443.50265158 306.05807973 -1448.4375 317.125 C-1448.80456055 317.9607959 -1449.17162109 318.7965918 -1449.54980469 319.65771484 C-1460.18262437 343.72991275 -1474.37486689 366.10369482 -1491.4375 386.125 C-1492.33673361 387.20897548 -1493.23512649 388.29364879 -1494.1328125 389.37890625 C-1505.60829988 403.1448247 -1517.99925148 415.48887822 -1532.4375 426.125 C-1532.99759766 426.54587891 -1533.55769531 426.96675781 -1534.13476562 427.40039062 C-1565.44942706 450.91347551 -1601.37993347 464.39157777 -1640.4375 467.125 C-1641.69175781 467.22167969 -1642.94601562 467.31835938 -1644.23828125 467.41796875 C-1700.36959925 469.61106143 -1766.89858503 438.21619605 -1807.9375 401.3125 C-1808.71351562 400.58933594 -1809.48953125 399.86617188 -1810.2890625 399.12109375 C-1812.24790872 397.30114754 -1814.26045875 395.58782627 -1816.3125 393.875 C-1858.08956554 357.29909523 -1881.12245087 301.35866242 -1885.125 246.8046875 C-1888.46911567 192.21579926 -1872.59606312 139.05278555 -1836.7578125 97.16162109 C-1834.24430072 94.3331687 -1831.66588416 91.57463803 -1829.04296875 88.84765625 C-1826.87389858 86.5810267 -1824.82826976 84.27606841 -1822.8125 81.875 C-1818.74705992 77.19090599 -1814.13504717 73.1614109 -1809.4375 69.125 C-1808.63957031 68.43921875 -1807.84164063 67.7534375 -1807.01953125 67.046875 C-1804.19954144 64.6859533 -1801.33401048 62.39068551 -1798.4375 60.125 C-1797.46973633 59.36509766 -1797.46973633 59.36509766 -1796.48242188 58.58984375 C-1759.868037 30.09327558 -1715.6848201 10.73455481 -1669.79492188 3.49902344 C-1667.70718582 3.16778777 -1665.62629287 2.79403645 -1663.546875 2.4140625 C-1633.56467772 -1.47724396 -1596.64859195 17.14485463 -1570.4375 30.125 C-1569.16640381 30.75124268 -1569.16640381 30.75124268 -1567.86962891 31.39013672 C-1533.88187889 48.29349395 -1500.591569 72.48501062 -1476.71875 102.28515625 C-1475.24157367 104.12403843 -1473.7427046 105.94578823 -1472.21875 107.74609375 C-1461.996493 119.85802853 -1453.92257386 133.19903084 -1446.4375 147.125 C-1445.83164063 148.22972656 -1445.22578125 149.33445313 -1444.6015625 150.47265625 C-1432.42128046 173.59314637 -1424.4375 200.87586647 -1424.4375 227.125 C-1400.6775 227.125 -1376.9175 227.125 -1352.4375 227.125 C-1352.4375 222.505 -1352.4375 217.885 -1352.4375 213.125 C-1349.56153008 214.47713511 -1346.68673578 215.83168694 -1343.8125 217.1875 C-1343.02359375 217.55810547 -1342.2346875 217.92871094 -1341.421875 218.31054688 C-1334.0348794 221.79885035 -1326.73425327 225.45285114 -1319.4375 229.125 C-1319.37280518 228.27607178 -1319.30811035 227.42714355 -1319.24145508 226.55249023 C-1314.44303819 165.4993284 -1292.03574899 114.30830012 -1249.4375 70.125 C-1248.61121094 69.25746094 -1247.78492188 68.38992187 -1246.93359375 67.49609375 C-1241.47848368 61.88484458 -1235.58224201 56.96235009 -1229.4375 52.125 C-1227.9215625 50.9184375 -1227.9215625 50.9184375 -1226.375 49.6875 C-1198.01456426 27.30762718 -1165.07660782 10.85069442 -1129.4375 4.125 C-1128.49342285 3.94026123 -1127.5493457 3.75552246 -1126.57666016 3.56518555 C-1117.10383974 1.89224355 -1107.77431575 1.76906097 -1098.1875 1.8125 C-1097.35257019 1.81432281 -1096.51764038 1.81614563 -1095.65740967 1.81802368 C-1081.41307289 1.87018891 -1067.49527864 2.68975651 -1053.4375 5.125 C-1052.46280762 5.29128906 -1051.48811523 5.45757813 -1050.48388672 5.62890625 C-1005.61317236 13.54856167 -960.22288813 32.20270067 -925.4375 62.125 C-924.3340719 63.04645806 -923.22983894 63.96695278 -922.125 64.88671875 C-890.37516225 91.49178687 -866.26371654 126.23446056 -857.4375 167.125 C-857.28941895 167.78483887 -857.14133789 168.44467773 -856.98876953 169.12451172 C-853.69296749 184.31216354 -849.28976408 212.82952816 -856.4375 227.125 C-834.6575 227.125 -812.8775 227.125 -790.4375 227.125 C-790.4375 222.505 -790.4375 217.885 -790.4375 213.125 C-778.69187497 218.64033697 -767.01494799 224.26441598 -755.4375 230.125 C-755.41171875 228.83851563 -755.3859375 227.55203125 -755.359375 226.2265625 C-753.74215229 168.77203023 -732.71848881 111.87243039 -693.5078125 69.3828125 C-691.65321134 67.36024746 -689.88714839 65.29016016 -688.125 63.1875 C-657.4583731 28.14999754 -609.419263 5.47388401 -563.4765625 1.32714844 C-552.80998673 0.61764292 -542.11638939 0.88902559 -531.4375 1.125 C-530.2103125 1.14578613 -528.983125 1.16657227 -527.71875 1.18798828 C-513.09205588 1.44945593 -498.77034447 2.06025484 -484.4375 5.125 C-483.69870605 5.2792041 -482.95991211 5.4334082 -482.19873047 5.59228516 C-448.82776597 12.80743441 -417.83125594 29.79535733 -391.4375 51.125 C-389.99310547 52.26195313 -389.99310547 52.26195313 -388.51953125 53.421875 C-372.60693535 66.34957257 -357.3503952 81.41540168 -345.4375 98.125 C-344.43786918 99.49245745 -343.4378488 100.85963019 -342.4375 102.2265625 C-321.87531088 130.59042049 -306.20670807 162.85252497 -299.125 197.3125 C-298.90408691 198.37682251 -298.90408691 198.37682251 -298.67871094 199.46264648 C-297.00805323 208.29815646 -296.38315417 217.14128539 -295.4375 226.125 C-278.6075 226.125 -261.7775 226.125 -244.4375 226.125 C-244.4375 221.835 -244.4375 217.545 -244.4375 213.125 C-236.44882484 215.49169842 -229.28229757 219.02891635 -221.875 222.8125 C-220.66369626 223.42569313 -219.45210951 224.03832753 -218.24023438 224.65039062 C-215.30316893 226.13647553 -212.36907184 227.62811537 -209.4375 229.125 C-209.41171875 227.83851563 -209.3859375 226.55203125 -209.359375 225.2265625 C-208.71557792 202.284563 -205.00720553 180.1074689 -198.4375 158.125 C-198.19725098 157.30966797 -197.95700195 156.49433594 -197.70947266 155.65429688 C-187.33066907 121.27846265 -168.19891558 89.93879481 -143.4375 64.125 C-142.85371582 63.50866699 -142.26993164 62.89233398 -141.66845703 62.25732422 C-104.86666855 23.56630729 -53.71022933 -0.21378287 0 0 Z M-134.8046875 75.515625 C-146.80027024 88.43394487 -156.66766751 102.88312318 -165.4375 118.125 C-165.80182129 118.7452002 -166.16614258 119.36540039 -166.54150391 120.00439453 C-180.24207242 143.45158992 -188.26856415 170.41775474 -192.4375 197.125 C-192.61539062 198.24962646 -192.61539062 198.24962646 -192.796875 199.39697266 C-199.56779174 244.48603876 -191.92100408 292.48513694 -171.4375 333.125 C-171.11056152 333.79063965 -170.78362305 334.4562793 -170.44677734 335.14208984 C-161.13587059 354.04230257 -148.64302061 370.43281257 -134.375 385.875 C-133.8092627 386.48939941 -133.24352539 387.10379883 -132.66064453 387.73681641 C-119.40103792 401.8898143 -103.16921419 413.43971611 -86.4375 423.125 C-85.77314941 423.51139648 -85.10879883 423.89779297 -84.42431641 424.29589844 C-57.16195814 439.94371822 -23.95411125 450.16631981 7.5625 451.125 C8.21557129 451.15078125 8.86864258 451.1765625 9.54150391 451.203125 C71.85523801 453.4192169 136.62815067 432.73646636 182.5625 390.125 C188.41285634 384.50069951 193.56553434 378.52144534 198.5625 372.125 C199.33464844 371.15433594 200.10679687 370.18367188 200.90234375 369.18359375 C234.47358144 324.83909015 242.14875034 265.2413199 235.4375 211.3125 C229.80353105 170.93389926 211.58070626 133.90488363 186.5625 102.125 C185.93601562 101.320625 185.93601562 101.320625 185.296875 100.5 C172.52824828 84.24902054 157.33054756 69.20607523 140.5625 57.125 C139.43907857 56.28522443 138.31669829 55.44405442 137.1953125 54.6015625 C101.85102041 28.3501182 62.39460853 15.67736052 18.5625 15.125 C17.17934685 15.09977482 15.79620894 15.0737023 14.41308594 15.046875 C-44.43967231 13.95127933 -93.15291234 33.45145602 -134.8046875 75.515625 Z M-1236.4375 78.125 C-1236.99969238 78.65996094 -1237.56188477 79.19492188 -1238.14111328 79.74609375 C-1246.73377203 87.96165266 -1254.44339981 96.50971052 -1261.4375 106.125 C-1261.89753418 106.75664063 -1262.35756836 107.38828125 -1262.83154297 108.0390625 C-1282.13531998 134.79914827 -1295.79845743 164.51854135 -1301.4375 197.125 C-1301.66308594 198.37667969 -1301.88867188 199.62835938 -1302.12109375 200.91796875 C-1309.46542076 248.98532277 -1294.69042184 300.92825863 -1266.4375 340.125 C-1265.42816406 341.54425781 -1265.42816406 341.54425781 -1264.3984375 342.9921875 C-1251.07938277 361.25140072 -1235.37667851 378.33768376 -1217.4375 392.125 C-1216.45910156 392.90875 -1215.48070312 393.6925 -1214.47265625 394.5 C-1182.55060296 419.9057168 -1145.12760131 436.13386519 -1106.4375 448.125 C-1105.5707666 448.39779785 -1104.7040332 448.6705957 -1103.81103516 448.95166016 C-1068.57975915 459.75165598 -1025.84986273 447.77567504 -994.20703125 431.15234375 C-992.94944936 430.47855853 -991.6929157 429.80281277 -990.4375 429.125 C-989.83599121 428.80418457 -989.23448242 428.48336914 -988.61474609 428.15283203 C-963.8382989 414.84908932 -942.04260855 395.97352065 -924.4375 374.125 C-924.00630859 373.59583984 -923.57511719 373.06667969 -923.13085938 372.52148438 C-892.80296702 335.11242514 -875.19688194 289.08914685 -872.12011719 241.12597656 C-871.77637723 235.8218046 -871.23696825 230.64194381 -870.40234375 225.390625 C-869.23591274 217.53823733 -869.08337613 209.7909486 -869.125 201.875 C-869.12682281 201.15232941 -869.12864563 200.42965881 -869.13052368 199.68508911 C-869.32460344 153.89933614 -890.78672969 115.34160749 -922.67407227 83.58374023 C-928.86553934 77.55506234 -935.46083405 72.21244914 -942.4375 67.125 C-943.48292969 66.35800781 -944.52835938 65.59101562 -945.60546875 64.80078125 C-1027.10661711 6.7881626 -1132.84319633 -1.62259832 -1236.4375 78.125 Z M-581.4375 19.125 C-582.21125977 19.29128906 -582.98501953 19.45757813 -583.78222656 19.62890625 C-633.05867972 30.53882208 -676.21868819 63.38148839 -703.32421875 105.55078125 C-706.1296209 110.01767286 -708.80361471 114.55535551 -711.4375 119.125 C-711.83565918 119.8061084 -712.23381836 120.4872168 -712.64404297 121.18896484 C-742.1275445 172.08354589 -747.84606995 236.86328775 -733.10546875 293.20703125 C-730.68189834 302.02092552 -727.76502454 310.61367954 -724.4375 319.125 C-724.16856934 319.81851562 -723.89963867 320.51203125 -723.62255859 321.2265625 C-703.55245257 372.09538167 -661.23005323 412.51522127 -611.91015625 434.80859375 C-554.98579488 459.48095923 -490.79548101 456.12668294 -433.46435547 434.18847656 C-385.2661308 415.09546003 -347.01698532 382.2024887 -325.8203125 334.484375 C-303.81622582 281.81137994 -303.26510778 217.50480407 -324.375 164.5 C-327.95619908 155.82344422 -332.0037246 147.39582298 -336.4375 139.125 C-336.75154785 138.53557617 -337.0655957 137.94615234 -337.38916016 137.33886719 C-346.6332572 120.15279346 -358.19416066 104.83115438 -371.33984375 90.4453125 C-373.15457441 88.4379568 -374.89141687 86.38932391 -376.625 84.3125 C-407.62177898 48.98893952 -457.62555062 20.12311943 -504.9699707 16.95556641 C-543.39895441 14.64362678 -543.39895441 14.64362678 -581.4375 19.125 Z M-1823.75 104.1875 C-1847.56831351 133.90914767 -1863.75704804 166.14504633 -1869.4375 204.125 C-1869.540625 204.80997559 -1869.64375 205.49495117 -1869.75 206.20068359 C-1870.70086813 213.47652278 -1870.68114032 220.79811248 -1870.6875 228.125 C-1870.68817474 228.82686432 -1870.68884949 229.52872864 -1870.68954468 230.25186157 C-1870.6207605 275.65906282 -1857.5442612 320.97959107 -1829.4375 357.125 C-1828.46876953 358.38183594 -1828.46876953 358.38183594 -1827.48046875 359.6640625 C-1816.82702563 373.23827208 -1805.00237986 385.4564053 -1791.4375 396.125 C-1790.46296875 396.91648437 -1789.4884375 397.70796875 -1788.484375 398.5234375 C-1755.53074331 424.77042555 -1715.26832325 440.27012267 -1674.4375 449.125 C-1673.69258301 449.29161133 -1672.94766602 449.45822266 -1672.18017578 449.62988281 C-1632.75261599 458.29981743 -1590.07859859 446.16100943 -1556.4375 425.125 C-1533.80447019 410.53693345 -1512.54274601 391.74670364 -1496.71777344 369.89257812 C-1495.36406631 368.02361558 -1493.9828952 366.17674175 -1492.6015625 364.328125 C-1468.38993425 331.4457649 -1451.86497515 293.74382649 -1442.4375 254.125 C-1442.14939453 252.94623291 -1442.14939453 252.94623291 -1441.85546875 251.74365234 C-1432.3405363 211.98612447 -1448.57114887 170.76246684 -1468.9296875 137.1015625 C-1472.40800279 131.49180843 -1476.31276931 126.27908826 -1480.4375 121.125 C-1481.51451172 119.75988281 -1481.51451172 119.75988281 -1482.61328125 118.3671875 C-1494.66967094 103.33417584 -1508.0821352 88.82907501 -1523.4375 77.125 C-1524.1382666 76.59084473 -1524.8390332 76.05668945 -1525.56103516 75.50634766 C-1535.22690738 68.18261396 -1544.92256587 61.18685309 -1555.4375 55.125 C-1556.59513084 54.43893495 -1557.75267967 53.75273152 -1558.91015625 53.06640625 C-1583.67910659 38.57428293 -1609.80513984 28.0999483 -1637.4375 20.5625 C-1638.6958667 20.21541992 -1639.9542334 19.86833984 -1641.25073242 19.51074219 C-1702.18991317 3.50112245 -1786.20545236 59.12072916 -1823.75 104.1875 Z " fill="#FFFFFF" transform="translate(1888.4375,1.875)"/>
<path d="M0 0 C1.05583282 -0.00095673 2.11166565 -0.00191345 3.19949341 -0.00289917 C5.41278137 -0.00357371 7.62607141 -0.00177067 9.83935547 0.00244141 C13.18071046 0.00778913 16.5219304 0.00247693 19.86328125 -0.00390625 C60.56829963 -0.02037169 60.56829963 -0.02037169 72.3203125 11.1328125 C78.20828387 17.31579705 81.5028866 24.13176318 84.3203125 32.1328125 C84.6915625 33.18275391 84.6915625 33.18275391 85.0703125 34.25390625 C87.34560789 41.85402488 87.65047937 50.12875505 84.2578125 57.3828125 C76.68794694 70.54596761 65.35870019 77.90292886 50.95922852 82.0378418 C42.46789698 84.21045403 33.72574101 84.50299185 25.0078125 84.9453125 C23.47202545 85.03162933 23.47202545 85.03162933 21.9052124 85.11968994 C-15.31068795 87.18184823 -53.51487023 88.02779562 -90.6796875 84.8828125 C-91.35553894 84.82841003 -92.03139038 84.77400757 -92.72772217 84.71795654 C-103.26453376 83.82232261 -113.14282702 81.68435659 -121.6796875 75.1328125 C-122.6490625 74.4315625 -123.6184375 73.7303125 -124.6171875 73.0078125 C-131.95479297 66.71291938 -136.98351239 58.006316 -137.95703125 48.39453125 C-138.39247503 35.2441291 -135.66557636 22.71072584 -126.60546875 12.8828125 C-114.21891124 1.12314882 -99.73489634 0.83323578 -83.53515625 0.97265625 C-81.87665663 0.97894345 -80.21815272 0.98417792 -78.55964661 0.98841858 C-74.213053 1.0016453 -69.86660316 1.02602715 -65.52008057 1.05377197 C-58.57660953 1.09706383 -51.63310415 1.12686921 -44.68953896 1.1498127 C-42.28744951 1.15988457 -39.8854866 1.17695056 -37.48344421 1.19480896 C-29.84262496 1.23657184 -22.29910056 1.0348157 -14.68153381 0.36335754 C-9.78824231 -0.01245254 -4.90534852 -0.010137 0 0 Z M-47.6796875 81.1328125 C-47.3496875 81.7928125 -47.0196875 82.4528125 -46.6796875 83.1328125 C-39.90673076 83.0133148 -33.13388387 82.88857419 -26.36108398 82.76049805 C-24.06585785 82.71767607 -21.77061049 82.67597461 -19.4753418 82.63549805 C-5.52391189 82.38859706 8.39211077 81.98933437 22.3203125 81.1328125 C22.3203125 80.8028125 22.3203125 80.4728125 22.3203125 80.1328125 C-1.03310687 79.9810608 -24.33852552 80.3869744 -47.6796875 81.1328125 Z " fill="#FDFDFD" transform="translate(1935.6796875,199.8671875)"/>
<path d="M0 0 C2.53703208 3.80554812 2.30995023 6.89487645 2.32226562 11.30761719 C2.33716034 12.57887955 2.33716034 12.57887955 2.35235596 13.87582397 C2.38159243 16.68287393 2.39520281 19.48969772 2.40625 22.296875 C2.41775502 24.2487997 2.42927046 26.20072434 2.4407959 28.15264893 C2.46181497 32.24826104 2.47350034 36.34379466 2.48046875 40.43945312 C2.49142804 45.67982197 2.53945867 50.91914874 2.59641266 56.15919113 C2.63372235 60.19304397 2.64407962 64.22664747 2.6471405 68.26065826 C2.6531837 70.19194475 2.66920796 72.12322736 2.69551086 74.05434418 C2.72975224 76.76196173 2.72584682 79.4670565 2.71289062 82.17480469 C2.74053497 83.36428207 2.74053497 83.36428207 2.76873779 84.57778931 C2.68789528 89.99036377 1.2126174 92.72919432 -2.49848652 96.65224361 C-7.91599268 101.51498951 -16.38122522 101.62157569 -23.3125 102.1875 C-24.19228516 102.26935547 -25.07207031 102.35121094 -25.97851562 102.43554688 C-29.681236 102.77011311 -33.27673727 103 -37 103 C-37 112.24 -37 121.48 -37 131 C-11.26 131 14.48 131 41 131 C41.99 128.03 41.99 128.03 43 125 C46.27716046 121.10283621 48.13460988 119.94615605 53 118 C53 112.72 53 107.44 53 102 C50.4940625 102.0928125 50.4940625 102.0928125 47.9375 102.1875 C37.19473863 102.16213339 24.86936972 100.59134213 16 94 C14.03334857 90.87848762 13.80998033 88.69897149 14.05859375 85.0546875 C14.11539307 84.07467773 14.17219238 83.09466797 14.23071289 82.08496094 C14.33307251 80.49603027 14.33307251 80.49603027 14.4375 78.875 C14.89697533 70.12032019 14.99828439 61.5053046 14.5625 52.75 C14.08787129 42.40277059 13.76481595 32.05995716 13.6569519 21.70251465 C13.63577911 20.03595054 13.60555528 18.369475 13.56594849 16.70324707 C13.51192904 14.35774787 13.49039906 12.01400498 13.4765625 9.66796875 C13.45392838 8.9669957 13.43129425 8.26602264 13.40797424 7.54380798 C13.42450286 3.68317847 13.89869237 2.12479576 16.36401367 -0.91210938 C28.9847808 -10.90866402 58.13254303 -9.18249907 73.42285156 -7.77734375 C82.05278654 -6.75229083 90.79209953 -5.17328524 98 0 C100.54086682 3.81130023 100.30273735 6.90474898 100.30639648 11.32348633 C100.31472 12.17260086 100.32304352 13.02171539 100.33161926 13.89656067 C100.355748 16.70843063 100.36449533 19.52006868 100.37109375 22.33203125 C100.38005866 24.28635224 100.38918048 26.24067251 100.39845276 28.19499207 C100.41495365 32.29480661 100.42264474 36.39453938 100.42553711 40.49438477 C100.43091872 45.74369328 100.46858499 50.99223145 100.51428127 56.24132252 C100.54405041 60.27942192 100.55126065 64.31733591 100.55226326 68.35553551 C100.55646668 70.2904176 100.56890587 72.22530019 100.58978081 74.16007423 C100.61668924 76.87006547 100.6118715 79.57827269 100.59936523 82.28833008 C100.62161667 83.48320038 100.62161667 83.48320038 100.64431763 84.70220947 C100.56864867 90.47104095 99.11403419 92.95156838 95 97 C86.21457559 103.30566752 71.46582862 103 61 103 C61 108.28 61 113.56 61 119 C62.65 119.66 64.3 120.32 66 121 C69.84423888 124.30783346 71.05925642 126.14814105 73 131 C98.74 131 124.48 131 151 131 C150.67 121.76 150.34 112.52 150 103 C145.6996875 102.62875 145.6996875 102.62875 141.3125 102.25 C131.48482565 101.28772621 121.24100585 99.8763186 113 94 C111.01313819 90.8920621 110.81027212 88.69469425 111.05859375 85.0546875 C111.14379272 83.58467285 111.14379272 83.58467285 111.23071289 82.08496094 C111.33307251 80.49603027 111.33307251 80.49603027 111.4375 78.875 C111.89697533 70.12032019 111.99828439 61.5053046 111.5625 52.75 C111.08787129 42.40277059 110.76481595 32.05995716 110.6569519 21.70251465 C110.63577911 20.03595054 110.60555528 18.369475 110.56594849 16.70324707 C110.51192904 14.35774787 110.49039906 12.01400498 110.4765625 9.66796875 C110.44261131 8.61650917 110.44261131 8.61650917 110.40797424 7.54380798 C110.42450286 3.68317847 110.89869237 2.12479576 113.36401367 -0.91210938 C125.9847808 -10.90866402 155.13254303 -9.18249907 170.42285156 -7.77734375 C179.05278654 -6.75229083 187.79209953 -5.17328524 195 0 C197.54086682 3.81130023 197.30273735 6.90474898 197.30639648 11.32348633 C197.31472 12.17260086 197.32304352 13.02171539 197.33161926 13.89656067 C197.355748 16.70843063 197.36449533 19.52006868 197.37109375 22.33203125 C197.38005866 24.28635224 197.38918048 26.24067251 197.39845276 28.19499207 C197.41495365 32.29480661 197.42264474 36.39453938 197.42553711 40.49438477 C197.43091872 45.74369328 197.46858499 50.99223145 197.51428127 56.24132252 C197.54405041 60.27942192 197.55126065 64.31733591 197.55226326 68.35553551 C197.55646668 70.2904176 197.56890587 72.22530019 197.58978081 74.16007423 C197.61668924 76.87006547 197.6118715 79.57827269 197.59936523 82.28833008 C197.62161667 83.48320038 197.62161667 83.48320038 197.64431763 84.70220947 C197.56864867 90.47104095 196.11403419 92.95156838 192 97 C183.21457559 103.30566752 168.46582862 103 158 103 C158 114.88 158 126.76 158 139 C129.95 139 101.9 139 73 139 C72.34 140.65 71.68 142.3 71 144 C68.0507611 148.58770495 65.23324159 150.45576478 60 152 C54.02575328 152.26020238 49.5531109 151.0236794 45 147 C44.45454025 145.81397186 43.90908051 144.62794373 43.34709167 143.40597534 C42.36960607 141.51280198 42.36960607 141.51280198 41 140 C37.91454354 139.27222492 35.84944504 139.06040436 32.7590332 139.12939453 C31.93100189 139.12022507 31.10297058 139.1110556 30.24984741 139.10160828 C27.51588157 139.07931789 24.7846699 139.10605487 22.05078125 139.1328125 C20.1531587 139.12596755 18.25554525 139.11590412 16.35795593 139.10275269 C11.36526816 139.0761512 6.37353026 139.09044536 1.38085938 139.11407471 C-4.69697817 139.13571564 -10.77476966 139.11160965 -16.85258961 139.09202385 C-21.57843071 139.07734486 -26.30386216 139.07035599 -31.02970886 139.08621216 C-31.89571213 139.08751633 -32.76171539 139.0888205 -33.65396118 139.09016418 C-35.27791978 139.09281781 -36.90187805 139.09927797 -38.52580261 139.11012268 C-40.35090406 139.11096309 -42.1759195 139.06104383 -44 139 C-45 138 -45 138 -45.11352539 134.58178711 C-45.11336628 133.06363012 -45.10767226 131.54546771 -45.09765625 130.02734375 C-45.0962413 129.22970108 -45.09482635 128.43205841 -45.09336853 127.61024475 C-45.08775316 125.05262565 -45.07519812 122.49509282 -45.0625 119.9375 C-45.05748698 118.20768355 -45.05292373 116.47786574 -45.04882812 114.74804688 C-45.03777875 110.49866447 -45.02050386 106.24934688 -45 102 C-46.05948853 102.02066528 -46.05948853 102.02066528 -47.14038086 102.04174805 C-58.63424041 102.17102359 -71.45177156 101.09584135 -81 94 C-82.90382376 90.95122509 -83.19820933 88.86191707 -82.94140625 85.30859375 C-82.88460693 84.37893799 -82.82780762 83.44928223 -82.76928711 82.49145508 C-82.66692749 80.97974731 -82.66692749 80.97974731 -82.5625 79.4375 C-82.08166968 70.68268433 -82.02188445 62.06959258 -82.4375 53.3125 C-82.8990567 42.75488184 -83.23282124 32.20124834 -83.3430481 21.63412476 C-83.36422163 19.97140554 -83.39444613 18.30877512 -83.43405151 16.64639282 C-83.48804484 14.30812524 -83.50959352 11.971618 -83.5234375 9.6328125 C-83.54607162 8.93501175 -83.56870575 8.237211 -83.59202576 7.51826477 C-83.57545359 3.66625952 -83.09707697 2.11949401 -80.63598633 -0.90991211 C-64.26207807 -13.89287299 -16.52760547 -11.86226388 0 0 Z M-75 5 C-71.02365428 9.96978029 -63.9683027 10.22812199 -58 11 C-53.08502178 11.41435479 -48.17080662 11.43428039 -43.24145508 11.39111328 C-41.06723089 11.37503498 -38.89487148 11.39106098 -36.72070312 11.41015625 C-26.18828652 11.42472082 -16.05641672 10.35213891 -6 7 C-6 6.34 -6 5.68 -6 5 C-23.06712688 -3.53356344 -57.99648949 -4.31876961 -75 5 Z M22 5 C22.81773496 7.18890072 22.81773496 7.18890072 25.0390625 7.81640625 C25.89242187 8.06261719 26.74578125 8.30882812 27.625 8.5625 C28.88183594 8.93568359 28.88183594 8.93568359 30.1640625 9.31640625 C38.12654566 11.23573759 46.09375087 11.2191548 54.23046875 11.24023438 C56.46653674 11.24985601 58.70165019 11.28089788 60.9375 11.3125 C71.62955834 11.38992729 81.78222419 10.40592527 92 7 C92 6.34 92 5.68 92 5 C81.93266951 0.8211081 72.04008293 -0.36944177 61.1875 -0.3125 C60.11669189 -0.30976074 59.04588379 -0.30702148 57.94262695 -0.30419922 C39.40470621 -0.3471815 39.40470621 -0.3471815 22 5 Z M119 5 C119.81773496 7.18890072 119.81773496 7.18890072 122.0390625 7.81640625 C122.89242187 8.06261719 123.74578125 8.30882812 124.625 8.5625 C125.88183594 8.93568359 125.88183594 8.93568359 127.1640625 9.31640625 C135.12654566 11.23573759 143.09375087 11.2191548 151.23046875 11.24023438 C153.46653674 11.24985601 155.70165019 11.28089788 157.9375 11.3125 C168.62955834 11.38992729 178.78222419 10.40592527 189 7 C189 6.34 189 5.68 189 5 C178.93266951 0.8211081 169.04008293 -0.36944177 158.1875 -0.3125 C157.11669189 -0.30976074 156.04588379 -0.30702148 154.94262695 -0.30419922 C136.40470621 -0.3471815 136.40470621 -0.3471815 119 5 Z M-75 14 C-75 38.75 -75 63.5 -75 89 C-55.57066671 96.06521211 -29.82180698 98.82062524 -9.71484375 91.86328125 C-6.02526214 89.33100725 -5.95089709 87.31393979 -5 83 C-4.71227359 79.48368919 -4.71227359 79.48368919 -4.76953125 75.8203125 C-4.76962692 75.14199875 -4.7697226 74.463685 -4.76982117 73.76481628 C-4.77353693 71.55136384 -4.79249464 69.33836043 -4.8125 67.125 C-4.8193867 65.58227702 -4.82589161 64.0395523 -4.83203125 62.49682617 C-4.92093322 46.65725466 -5.41267931 30.82798021 -6 15 C-7.01191406 15.2165625 -8.02382812 15.433125 -9.06640625 15.65625 C-29.98237019 19.7288121 -54.57280825 20.80906392 -75 14 Z M22 14 C22 38.75 22 63.5 22 89 C27.87703636 91.51872987 32.07393084 92.80853888 38.1875 93.6875 C39.05536133 93.81342529 39.92322266 93.93935059 40.81738281 94.0690918 C54.95227514 95.94992387 78.71398449 98.5429 91 90 C92.75295056 85.18430372 93.24765042 80.92023682 93.23046875 75.8203125 C93.23037308 75.14199875 93.2302774 74.463685 93.23017883 73.76481628 C93.22646307 71.55136384 93.20750536 69.33836043 93.1875 67.125 C93.1806133 65.58227702 93.17410839 64.0395523 93.16796875 62.49682617 C93.07906678 46.65725466 92.58732069 30.82798021 92 15 C90.91589844 15.2165625 89.83179688 15.433125 88.71484375 15.65625 C67.45958004 19.54305853 42.75331235 20.91777078 22 14 Z M119 14 C119 38.75 119 63.5 119 89 C124.87703636 91.51872987 129.07393084 92.80853888 135.1875 93.6875 C136.05536133 93.81342529 136.92322266 93.93935059 137.81738281 94.0690918 C151.95227514 95.94992387 175.71398449 98.5429 188 90 C189.75295056 85.18430372 190.24765042 80.92023682 190.23046875 75.8203125 C190.23037308 75.14199875 190.2302774 74.463685 190.23017883 73.76481628 C190.22646307 71.55136384 190.20750536 69.33836043 190.1875 67.125 C190.1806133 65.58227702 190.17410839 64.0395523 190.16796875 62.49682617 C190.07906678 46.65725466 189.58732069 30.82798021 189 15 C187.91589844 15.2165625 186.83179688 15.433125 185.71484375 15.65625 C164.45958004 19.54305853 139.75331235 20.91777078 119 14 Z M50 128 C47.9308007 130.63352638 48.00069278 132.0381031 48.0625 135.4375 C49.1926167 139.73194348 50.43249509 141.38382973 54 144 C57 144.83333333 57 144.83333333 60 144 C62.83411155 141.666508 62.83411155 141.666508 65 139 C65.33 138.67 65.66 138.34 66 138 C65.83617998 133.74067957 65.40363426 131.51575488 62.75 128.125 C57.86788426 124.35245602 54.92133381 124.14273836 50 128 Z " fill="#FFFFFF" transform="translate(164,173)"/>
<path d="M0 0 C6.66564928 5.69713613 10.19737314 11.75170229 11.30859375 20.40234375 C11.69686113 27.85001797 9.30061814 34.39876372 6 41 C6.65871094 41.2165625 7.31742188 41.433125 7.99609375 41.65625 C12.04095054 43.46565278 15.45767013 45.94258633 19.0625 48.5 C20.46839122 49.49194148 21.87589345 50.48160442 23.28515625 51.46875 C23.90269775 51.90638672 24.52023926 52.34402344 25.15649414 52.79492188 C27.04405239 54.02879653 28.96550869 55.03122137 31 56 C31.61875 55.443125 32.2375 54.88625 32.875 54.3125 C46.4221343 44.28762062 62.83924011 42.92097894 79.18505859 45.32080078 C92.05475431 48.05839695 103.442493 55.33538316 110.75 66.25 C118.45766469 79.04331559 121.50089609 93.92945645 117.875 108.625 C115.50388156 116.24645212 111.97644564 123.7350104 107 130 C108.30906908 132.94787948 109.62892474 134.82456177 112.08203125 136.91015625 C112.68466797 137.42513672 113.28730469 137.94011719 113.90820312 138.47070312 C114.53662109 138.99599609 115.16503906 139.52128906 115.8125 140.0625 C116.42931641 140.59166016 117.04613281 141.12082031 117.68164062 141.66601562 C120.9701294 144.45127126 124.2080654 146.91263029 128 149 C128.49628906 148.66226563 128.99257812 148.32453125 129.50390625 147.9765625 C130.18324219 147.53054688 130.86257813 147.08453125 131.5625 146.625 C132.22378906 146.18414062 132.88507813 145.74328125 133.56640625 145.2890625 C139.3329486 142.23455371 144.9894308 141.64082186 151.375 141.6875 C152.12233398 141.68951416 152.86966797 141.69152832 153.63964844 141.69360352 C158.47629291 141.78151379 162.6483568 142.32481376 167.140625 144.24609375 C169.38849206 145.15751884 171.61697959 145.57680844 174 146 C175.20571536 144.45151269 176.38902174 142.88555794 177.5625 141.3125 C178.55443359 140.00732422 178.55443359 140.00732422 179.56640625 138.67578125 C181.25377127 136.10700811 181.25377127 136.10700811 180.78125 133.3046875 C180.04707943 130.98096679 180.04707943 130.98096679 178.9375 128.8125 C177.14100287 123.42300861 177.27765956 118.01494965 179.1875 112.6875 C182.91708742 107.1574221 186.57596381 104.0009293 193 102 C200.99287489 101.06041889 206.54269522 102.67296793 213.25 107.1875 C217.49066314 111.52454185 219.09426231 116.02663956 219.375 122.0625 C218.8072519 128.02385506 216.74499291 133.12926466 212.69921875 137.63671875 C208.28235308 141.180365 202.82648011 143.16763951 197.16796875 142.83203125 C193.66229173 142.14937379 190.38491773 141.12830591 187 140 C186.773125 140.680625 186.54625 141.36125 186.3125 142.0625 C184.64427643 145.79614324 182.44270392 148.72163421 180 152 C180.28617188 152.55042969 180.57234375 153.10085938 180.8671875 153.66796875 C182.08694887 156.17899475 183.12900771 158.70447575 184.125 161.3125 C184.65480469 162.66794922 184.65480469 162.66794922 185.1953125 164.05078125 C186 167 186 167 186 174 C198.375 173.01 198.375 173.01 211 172 C211.66 169.69 212.32 167.38 213 165 C215.90927716 160.18850316 219.70557725 157.65284984 225 156 C232.07771358 154.98006748 238.17266191 155.69571619 244 160 C248.70658901 164.38241069 251.03618566 168.92967493 251.375 175.3125 C251.18841539 181.91979039 248.56635649 186.79455028 243.875 191.375 C239.65924569 194.66292804 235.31552562 195.87789757 230 196 C223.51491357 195.05844585 218.3169959 191.89100089 214 187 C212.40807126 184.32242805 212 183.18412936 212 180 C211.39526855 180.06058594 210.79053711 180.12117187 210.16748047 180.18359375 C207.40361276 180.45876342 204.63932049 180.72941836 201.875 181 C200.44800781 181.14308594 200.44800781 181.14308594 198.9921875 181.2890625 C194.30899618 181.74437277 189.7123674 182.12693246 185 182 C184.95875 183.27875 184.9175 184.5575 184.875 185.875 C183.95017497 194.04428778 178.88992311 200.97152101 172.96484375 206.46875 C166.0210497 211.88021574 157.82391106 214.92327034 149 215 C137.87106444 213.090301 127.62559747 207.97243508 120.46875 199.14453125 C114.34702738 190.20616497 112.7076092 180.21554798 114.6875 169.625 C115.94707586 164.35684694 118.41401654 159.72780946 121 155 C118.79211695 153.10364017 116.58370715 151.20789959 114.375 149.3125 C113.75753906 148.78205078 113.14007812 148.25160156 112.50390625 147.70507812 C108.69535927 144.43774572 104.86273898 141.20310202 101 138 C98.0109216 139.4266056 95.28344349 141.08431802 92.5 142.875 C81.47292468 149.50746148 70.19531964 152.49376286 57.625 149.4375 C49.80487528 147.2502734 41.53231779 144.31925735 35.5390625 138.6875 C33.13528086 136.68298567 33.13528086 136.68298567 30.37890625 137.37890625 C25.46998662 139.73405266 20.69722625 142.29530213 15.9375 144.9375 C14.95716797 145.47568359 13.97683594 146.01386719 12.96679688 146.56835938 C8.59736991 148.9740656 4.26640462 151.41495121 0 154 C0.474375 154.9075 0.94875 155.815 1.4375 156.75 C5.0517575 164.2676556 4.99158259 171.80518067 2.375 179.6875 C-0.76264514 187.43868608 -5.10841001 192.20281903 -12.57421875 195.9921875 C-19.5716563 198.89933547 -25.87926367 199.89279913 -33 197 C-37.80643841 194.80706248 -41.46049665 191.92215236 -45 188 C-46.051875 186.8553125 -46.051875 186.8553125 -47.125 185.6875 C-52.30523329 178.26249896 -52.97648407 170.86430535 -52 162 C-49.64253966 153.36865326 -44.35512198 148.64003672 -36.96484375 144.015625 C-30.36347102 140.60338462 -20.96933346 140.75533417 -14.03515625 142.9296875 C-12.39556844 143.64469572 -10.77398374 144.40403263 -9.18359375 145.22265625 C-6.32107276 146.24169324 -4.93048059 145.79647356 -2 145 C0.06708949 144.01074633 2.10042919 142.9494825 4.10546875 141.83984375 C5.25337891 141.21142578 6.40128906 140.58300781 7.58398438 139.93554688 C8.78545236 139.27006556 9.98662105 138.60404365 11.1875 137.9375 C13.55326673 136.62901328 15.92225316 135.32689658 18.29296875 134.02734375 C19.3399292 133.44718506 20.38688965 132.86702637 21.46557617 132.26928711 C24 131 24 131 26 131 C25.31164063 129.98292969 25.31164063 129.98292969 24.609375 128.9453125 C15.701965 115.43449313 11.61129132 102.25002604 14.68359375 85.953125 C16.57644544 77.28023411 19.60424072 69.73653633 24 62 C22.49759766 61.00419922 22.49759766 61.00419922 20.96484375 59.98828125 C19.62235386 59.09641734 18.27990832 58.20448668 16.9375 57.3125 C16.28072266 56.87744141 15.62394531 56.44238281 14.94726562 55.99414062 C14.29306641 55.55908203 13.63886719 55.12402344 12.96484375 54.67578125 C11.97653564 54.02150146 11.97653564 54.02150146 10.96826172 53.35400391 C9.64699281 52.44507841 8.35112314 51.49818207 7.08251953 50.51708984 C5.45166599 49.25813188 3.72973019 48.11923718 2 47 C-0.95131917 47.43808914 -3.16644656 48.54808567 -5.75 50 C-11.91138984 53.12633485 -17.41316919 53.67995024 -24.0546875 51.7265625 C-29.69179544 49.62113664 -33.95865378 46.47824851 -38 42 C-38.70125 41.236875 -39.4025 40.47375 -40.125 39.6875 C-45.30523329 32.26249896 -45.97648407 24.86430535 -45 16 C-42.64253966 7.36865326 -37.35512198 2.64003672 -29.96484375 -1.984375 C-21.18774778 -6.52124369 -8.1602024 -5.26099704 0 0 Z M-35 12 C-38.41985576 17.12978363 -37.61201747 23.02306343 -37 29 C-35.07951263 35.46999143 -31.13023676 39.50538095 -25.38671875 42.89453125 C-20.50368722 45.15622998 -16.62282897 45.80274462 -11.421875 44.2109375 C-5.24939418 41.49430672 -1.32152889 37.85863768 2 32 C3.97784396 26.06646813 4.00831235 19.36146881 1.375 13.625 C-1.31754137 8.95856709 -4.82600399 5.72466534 -10 4 C-12.26763574 3.85351918 -14.54032366 3.7790374 -16.8125 3.75 C-18.01519531 3.72421875 -19.21789063 3.6984375 -20.45703125 3.671875 C-26.93481636 4.27180218 -30.74135231 7.26816923 -35 12 Z M31.73828125 65.81640625 C22.37494169 77.57844403 20.72200213 91.54055811 22 106 C24.14159354 117.19592573 31.49369 126.9496788 40.65625 133.5078125 C50.25224604 139.61726331 60.60527631 144.173424 72.171875 142.63671875 C80.8330046 140.6867683 88.35896413 136.8487214 95 131 C95.90685547 130.21496094 95.90685547 130.21496094 96.83203125 129.4140625 C105.82693949 121.06584701 110.87920088 110.48998092 111.40258789 98.25488281 C111.61477607 85.6897811 108.50910405 74.53288186 100 65 C89.98040316 55.47497193 79.86276802 52.8097702 66.4375 52.6875 C65.40302734 52.65849609 64.36855469 52.62949219 63.30273438 52.59960938 C50.78989206 52.49775155 40.47603829 56.80741063 31.73828125 65.81640625 Z M188 113 C185.15730348 117.26404478 185.37640924 120.99568417 186 126 C187.79507533 129.79727475 189.33492982 131.53142782 192.75 133.9375 C196.76710377 135.25078392 200.01990466 135.31351059 204 134 C207.45979784 131.92262679 209.69404971 129.91785087 211 126 C211.50154202 119.8811874 211.07788705 116.89346446 207 112 C201.4782456 108.3188304 193.11473388 108.54523179 188 113 Z M-42 158 C-45.41985576 163.12978363 -44.61201747 169.02306343 -44 175 C-42.07951263 181.46999143 -38.13023676 185.50538095 -32.38671875 188.89453125 C-27.50368722 191.15622998 -23.62282897 191.80274462 -18.421875 190.2109375 C-12.24939418 187.49430672 -8.32152889 183.85863768 -5 178 C-3.02215604 172.06646813 -2.99168765 165.36146881 -5.625 159.625 C-8.31754137 154.95856709 -11.82600399 151.72466534 -17 150 C-19.26763574 149.85351918 -21.54032366 149.7790374 -23.8125 149.75 C-25.01519531 149.72421875 -26.21789063 149.6984375 -27.45703125 149.671875 C-33.93481636 150.27180218 -37.74135231 153.26816923 -42 158 Z M134 154 C132.9275 154.721875 131.855 155.44375 130.75 156.1875 C124.72669794 162.34769529 121.90161412 169.0829734 121.6875 177.625 C121.78336882 185.49582994 123.75509092 191.89269757 129.0625 197.8125 C134.87632692 203.07855736 142.80488638 206.72629472 150.68359375 207.19140625 C159.35445526 206.47492697 166.20810466 202.28482261 172 196 C177.13847536 189.37407125 178.36137812 183.28450763 178.375 175.125 C178.41173828 173.97837891 178.41173828 173.97837891 178.44921875 172.80859375 C178.47837693 167.08387084 177.18853942 162.78041173 174 158 C168.26360656 152.26360656 162.42567197 149.65388792 154.44042969 149.53198242 C153.67633789 149.54205322 152.91224609 149.55212402 152.125 149.5625 C150.93245605 149.57277222 150.93245605 149.57277222 149.71582031 149.58325195 C143.75801701 149.74643758 139.01270083 150.59852444 134 154 Z M220 168 C218.27281684 171.45436632 218.64525058 175.21600619 219 179 C220.82599851 183.56499628 223.61250307 185.84764301 228 188 C232.54273747 188.46243435 235.89907345 187.41360629 239.4375 184.5625 C242.53384466 181.46615534 243.1872655 179.99568801 243.375 175.75 C243.35207487 172.19660432 242.89656284 170.25259968 240.625 167.5 C236.3956549 163.47205229 233.37967014 163.66985799 227.70703125 163.70703125 C224.11556825 164.09571772 222.36959176 165.31446267 220 168 Z " fill="#FFFFFF" transform="translate(1264,126)"/>
<path d="M0 0 C6.31244041 2.0289987 10.88672332 4.7978657 16 9 C14.60633871 13.19596947 12.64159779 15.79298574 9.625 19 C7.33477253 21.45107956 5.11468808 23.85071977 3.0703125 26.51171875 C-9.24605506 41.31459826 -30.51495037 49.642295 -49 53 C-46.12240728 56.98435915 -43.52008814 59.95316763 -39 62 C-31.38732743 61.31894579 -24.31502968 55.90014523 -18 52 C-16.515 52.99 -16.515 52.99 -15 54 C-16.31074365 58.46182436 -18.07066011 61.99618757 -20.625 65.875 C-21.25664063 66.84179688 -21.88828125 67.80859375 -22.5390625 68.8046875 C-23.26222656 69.89136719 -23.26222656 69.89136719 -24 71 C-22.67564803 72.01186443 -21.34024546 73.00928315 -20 74 C-19.34644531 74.48984375 -18.69289063 74.9796875 -18.01953125 75.484375 C-15.17756453 77.11410459 -13.29601227 77.76457055 -10 78 C-0.02013944 75.20223568 8.57596465 68.32758466 15.60546875 60.96875 C18.42767432 58.64837218 20.40374226 58.29144781 24 58 C23.50377075 63.83260224 21.77698522 68.09968469 19.0625 73.25 C18.52206055 74.30960938 18.52206055 74.30960938 17.97070312 75.390625 C16.43020355 78.38651367 14.87295112 81.19057332 13 84 C18.02649303 85.57077907 22.76119922 86.44854729 28 87 C28.23589844 86.34 28.47179687 85.68 28.71484375 85 C30.03542184 81.91731316 31.59591317 79.12438339 33.2746582 76.22753906 C41.45836384 62.07244329 47.99537387 47.14137866 52.83203125 31.51953125 C54 29 54 29 55.72265625 27.4921875 C59.1865307 26.74356283 61.39861683 27.96149757 64.625 29.3125 C65.77226563 29.78300781 66.91953125 30.25351562 68.1015625 30.73828125 C69.75055636 31.45610472 71.39141023 32.19570512 73 33 C72.44502713 39.46468395 70.86717677 45.04945945 68.625 51.125 C68.27268311 52.08003418 67.92036621 53.03506836 67.55737305 54.01904297 C60.7894285 71.84786776 51.67676035 93.32323965 38 107 C15.71703607 110.274405 -10.23388874 101.64542205 -30 92 C-30.63534668 91.69191406 -31.27069336 91.38382812 -31.92529297 91.06640625 C-49.54730842 82.40146216 -77.08101093 65.88781276 -84.1875 46.8125 C-83.94128474 43.11927108 -83.10332464 41.05321319 -81 38 C-75.9694749 34.82282625 -71.20590213 34.31816011 -65.4375 33.6875 C-38.43757536 30.23675706 -17.37409028 21.35055461 0 0 Z M1 6 C-0.72305671 7.8217735 -2.36521846 9.6643791 -4 11.5625 C-21.18507714 30.85926673 -46.75243552 37.03166386 -71.6015625 39.375 C-74.98249226 39.99678019 -76.52380669 40.68721031 -79 43 C-78.30968678 50.31466512 -71.93000968 55.04462405 -67 60 C-66.23236328 60.7736792 -66.23236328 60.7736792 -65.44921875 61.56298828 C-42.54532783 84.34366207 -10.86493775 98.73265798 21.3125 101.62890625 C25 102 25 102 28.0625 102.71484375 C31.3296874 103.27639158 32.93933484 103.32101658 36 102 C40.8376849 97.27186093 43.82966364 90.88807468 47 85 C47.50740723 84.09040527 48.01481445 83.18081055 48.53759766 82.24365234 C60.84796042 60.23946404 60.84796042 60.23946404 67 36 C62.7362719 33.64089647 62.7362719 33.64089647 58 33 C57.73896484 33.67353516 57.47792969 34.34707031 57.20898438 35.04101562 C49.64829486 54.46576434 41.61117641 73.58323538 30 91 C22.17634773 92.64878622 13.56175134 89.83051041 6 88 C6.64364297 84.21859757 8.39576869 81.60678281 10.5 78.4375 C12.39716345 75.57231667 13.91195938 73.26412185 15 70 C11.7617095 71.51771388 8.89969931 73.37693331 5.9375 75.375 C3.96457374 76.59349585 1.98541006 77.80195282 0 79 C-0.82371094 79.54914063 -1.64742187 80.09828125 -2.49609375 80.6640625 C-5.61432804 82.32776941 -7.43088108 82.94967165 -11 83 C-17.70957086 80.91999099 -23.91069681 77.45145759 -30 74 C-29.27031096 69.49128985 -27.67844067 66.71525641 -25 63 C-25.56847656 63.20496094 -26.13695312 63.40992188 -26.72265625 63.62109375 C-29.13473658 64.46270442 -31.56353338 65.23223881 -34 66 C-35.7015625 66.5878125 -35.7015625 66.5878125 -37.4375 67.1875 C-43.34979844 66.8763264 -46.74058646 62.83075052 -51 59 C-52.37474772 57.91634655 -53.74971297 56.83296893 -55.125 55.75 C-56.07375 54.8425 -57.0225 53.935 -58 53 C-58 51.68 -58 50.36 -58 49 C-56.9584375 48.85304688 -55.916875 48.70609375 -54.84375 48.5546875 C-29.43882976 44.6910599 -9.19576721 33.3899836 7.8125 13.92578125 C8.204375 13.29027344 8.59625 12.65476563 9 12 C7.74874616 8.24623848 6.4347596 7.75926711 3 6 C2.34 6 1.68 6 1 6 Z " fill="#FFFFFF" transform="translate(786,232)"/>
<path d="M0 0 C1.05583282 -0.00095673 2.11166565 -0.00191345 3.19949341 -0.00289917 C5.41278137 -0.00357371 7.62607141 -0.00177067 9.83935547 0.00244141 C13.18071046 0.00778913 16.5219304 0.00247693 19.86328125 -0.00390625 C60.56829963 -0.02037169 60.56829963 -0.02037169 72.3203125 11.1328125 C78.20828387 17.31579705 81.5028866 24.13176318 84.3203125 32.1328125 C84.6915625 33.18275391 84.6915625 33.18275391 85.0703125 34.25390625 C87.34560789 41.85402488 87.65047937 50.12875505 84.2578125 57.3828125 C76.68794694 70.54596761 65.35870019 77.90292886 50.95922852 82.0378418 C42.46789698 84.21045403 33.72574101 84.50299185 25.0078125 84.9453125 C23.47202545 85.03162933 23.47202545 85.03162933 21.9052124 85.11968994 C-15.31068795 87.18184823 -53.51487023 88.02779562 -90.6796875 84.8828125 C-91.35553894 84.82841003 -92.03139038 84.77400757 -92.72772217 84.71795654 C-103.26453376 83.82232261 -113.14282702 81.68435659 -121.6796875 75.1328125 C-122.6490625 74.4315625 -123.6184375 73.7303125 -124.6171875 73.0078125 C-131.95479297 66.71291938 -136.98351239 58.006316 -137.95703125 48.39453125 C-138.39247503 35.2441291 -135.66557636 22.71072584 -126.60546875 12.8828125 C-114.21891124 1.12314882 -99.73489634 0.83323578 -83.53515625 0.97265625 C-81.87665663 0.97894345 -80.21815272 0.98417792 -78.55964661 0.98841858 C-74.213053 1.0016453 -69.86660316 1.02602715 -65.52008057 1.05377197 C-58.57660953 1.09706383 -51.63310415 1.12686921 -44.68953896 1.1498127 C-42.28744951 1.15988457 -39.8854866 1.17695056 -37.48344421 1.19480896 C-29.84262496 1.23657184 -22.29910056 1.0348157 -14.68153381 0.36335754 C-9.78824231 -0.01245254 -4.90534852 -0.010137 0 0 Z M-28.1171875 4.6328125 C-44.04005154 5.96821902 -59.50289373 6.72898674 -75.47265625 5.60546875 C-76.16295929 5.55765762 -76.85326233 5.5098465 -77.56448364 5.46058655 C-80.99564474 5.22044854 -84.42222301 4.96061815 -87.84960938 4.66918945 C-101.37068493 3.62530836 -113.04426453 5.61088871 -123.6796875 14.6953125 C-124.3396875 15.4996875 -124.9996875 16.3040625 -125.6796875 17.1328125 C-126.3603125 17.8546875 -127.0409375 18.5765625 -127.7421875 19.3203125 C-133.91903171 28.28669926 -135.35280154 38.42346296 -134.6796875 49.1328125 C-132.8413989 59.11036577 -126.46811496 67.63650286 -118.578125 73.85546875 C-109.62579864 79.87894759 -99.49937862 80.15144846 -89.03808594 80.89916992 C-86.6796875 81.1328125 -86.6796875 81.1328125 -83.83081055 81.63549805 C-77.5318521 82.62960809 -71.10938383 82.58432098 -64.7421875 82.7578125 C-63.94424774 82.77993805 -63.14630798 82.8020636 -62.32418823 82.82485962 C-34.23691118 83.56060949 -6.10447613 82.70374373 21.95462036 81.37271118 C23.54079361 81.29765566 25.12711846 81.22572085 26.71359253 81.15731812 C46.4272135 80.28354653 63.24024946 76.93287876 77.3203125 62.1328125 C81.8891118 56.73219377 83.82158922 50.76622818 83.6328125 43.74609375 C82.27904248 32.42519193 77.25314044 19.54052347 68.3203125 12.1328125 C67.80855469 11.70484375 67.29679687 11.276875 66.76953125 10.8359375 C59.32232147 5.01512986 51.25597326 3.66613544 42.0078125 3.4453125 C40.9856665 3.41405273 39.96352051 3.38279297 38.91040039 3.35058594 C35.38051708 3.2562276 31.85095224 3.19220902 28.3203125 3.1328125 C26.98632359 3.10552674 25.65233931 3.07801401 24.31835938 3.05029297 C6.75128795 2.70806389 -10.60577519 3.16038714 -28.1171875 4.6328125 Z " fill="#0E0E0E" transform="translate(1935.6796875,199.8671875)"/>
<path d="M0 0 C3.12388207 1.64871554 4.8261036 2.72673423 6.75 5.75 C7.4925 6.4925 8.235 7.235 9 8 C11.32277437 7.99110048 13.45414095 7.61074155 15.73828125 7.19921875 C19.093695 6.90366417 21.23236575 8.22587548 24 10 C23.8125 11.8125 23.8125 11.8125 23 14 C21.34467377 15.01866229 19.67739862 16.01810813 18 17 C16.67206394 19.06700655 16.67206394 19.06700655 16 21 C16.7425 21.226875 17.485 21.45375 18.25 21.6875 C21.69657413 23.33245584 23.06400384 24.70163617 25 28 C25.32274585 30.76127008 25.1895517 33.20411246 25 36 C18.07 35.505 18.07 35.505 11 35 C10.7525 36.093125 10.505 37.18625 10.25 38.3125 C9 42 9 42 7.125 44 C5 45 5 45 3 44.9375 C0.44310478 43.73895537 -1.11996267 42.0814699 -3 40 C-3.639375 40.268125 -4.27875 40.53625 -4.9375 40.8125 C-7.49141945 41.8027953 -10.044374 42.76975699 -12.625 43.6875 C-13.38039063 43.95949219 -14.13578125 44.23148438 -14.9140625 44.51171875 C-17 45 -17 45 -20 44 C-19.78515625 42.140625 -19.78515625 42.140625 -19 40 C-16.93359375 38.734375 -16.93359375 38.734375 -14.4375 37.75 C-13.61121094 37.41484375 -12.78492188 37.0796875 -11.93359375 36.734375 C-11.29550781 36.49203125 -10.65742187 36.2496875 -10 36 C-10 35.67 -10 35.34 -10 35 C-12.31 34.34 -14.62 33.68 -17 33 C-16.9071875 31.39125 -16.9071875 31.39125 -16.8125 29.75 C-17.01244062 25.75118752 -17.5803051 24.94571553 -20 22 C-18.73217374 18.19652123 -17.05055625 17.91171826 -13.65625 16.1171875 C-11.28977075 14.52093027 -10.67717466 12.70869866 -10 10 C-3.25 10.875 -3.25 10.875 -1 12 C-1.09539063 11.38511719 -1.19078125 10.77023438 -1.2890625 10.13671875 C-1.39992188 9.32847656 -1.51078125 8.52023438 -1.625 7.6875 C-1.79902344 6.48673828 -1.79902344 6.48673828 -1.9765625 5.26171875 C-2 3 -2 3 0 0 Z M3 12 C2.67 14.64 2.34 17.28 2 20 C0.125 19.6875 0.125 19.6875 -2 19 C-2.66 18.01 -3.32 17.02 -4 16 C-7.1623599 15.70591415 -7.1623599 15.70591415 -9.75 18 C-12.05605432 21.07473909 -12.37591355 21.54618044 -12.125 25.125 C-11.51069584 28.21992287 -11.14258304 28.87283134 -8.6875 31.0625 C-5.85708239 32.04985498 -4.7321794 32.11311013 -2 31 C-1.67 29.68 -1.34 28.36 -1 27 C-1.66 26.54625 -2.32 26.0925 -3 25.625 C-3.66 25.08875 -4.32 24.5525 -5 24 C-5 23.34 -5 22.68 -5 22 C-2.36 22.33 0.28 22.66 3 23 C3.66 21.68 4.32 20.36 5 19 C5.99 19.33 6.98 19.66 8 20 C8 21.32 8 22.64 8 24 C8.99 24 9.98 24 11 24 C11.28875 22.7625 11.5775 21.525 11.875 20.25 C12.61334794 17.27551258 13.44474933 14.666144 15 12 C14.2575 12.33 13.515 12.66 12.75 13 C10 14 10 14 6 14 C5.67 13.34 5.34 12.68 5 12 C4.34 12 3.68 12 3 12 Z M15 26 C15 26.99 15 27.98 15 29 C16.32 28.67 17.64 28.34 19 28 C17.68 27.34 16.36 26.68 15 26 Z M4 30 C1.78831775 32.94236782 1.78831775 32.94236782 0 36 C2.475 37.485 2.475 37.485 5 39 C5.144375 37.88625 5.28875 36.7725 5.4375 35.625 C6 32 6 32 7 30 C6.01 30 5.02 30 4 30 Z " fill="#FFFFFF" transform="translate(724,206)"/>
<path d="M0 0 C1.33129439 0.59410188 2.66332292 1.18656148 3.99609375 1.77734375 C27.57525169 12.28214857 27.57525169 12.28214857 32.0625 22.4375 C33.91310566 29.98227691 32.95235662 35.6977244 29.875 42.75 C24.99474859 42.16579746 20.89784992 40.64248021 16.46875 38.609375 C15.75862259 38.29060898 15.04849518 37.97184296 14.31684875 37.64341736 C11.99993798 36.6020458 9.68745501 35.55122416 7.375 34.5 C4.1407396 33.03981484 0.9045061 31.58403639 -2.33203125 30.12890625 C-3.14803299 29.76130692 -3.96403473 29.39370758 -4.80476379 29.01496887 C-10.22294618 26.58120837 -15.66652655 24.21664108 -21.13671875 21.90234375 C-22.18601059 21.45663528 -22.18601059 21.45663528 -23.25650024 21.00192261 C-25.92880315 19.86733272 -28.60091606 18.73292023 -31.28222656 17.61975098 C-33.10219588 16.86386913 -34.91650514 16.09440164 -36.73046875 15.32421875 C-38.26417114 14.68359497 -38.26417114 14.68359497 -39.82885742 14.0300293 C-42.125 12.75 -42.125 12.75 -43.125 9.75 C-40.05097982 2.80004133 -35.06517277 -2.27991361 -28.25 -5.6875 C-17.43956499 -7.6333783 -9.6681654 -4.44200199 0 0 Z M-37.125 7.75 C-37.125 8.41 -37.125 9.07 -37.125 9.75 C-36.12984375 10.17708252 -35.1346875 10.60416504 -34.109375 11.04418945 C-29.44635561 13.04667212 -24.78540206 15.05393455 -20.125 17.0625 C-19.28664612 17.42359863 -18.44829224 17.78469727 -17.58453369 18.15673828 C-5.99157505 23.15458044 5.54423126 28.24231794 16.953125 33.6496582 C17.83742188 34.0643335 18.72171875 34.47900879 19.6328125 34.90625 C20.3870752 35.26525391 21.14133789 35.62425781 21.91845703 35.99414062 C23.99182682 36.93018353 23.99182682 36.93018353 26.875 36.75 C28.5137437 33.47251259 28.39082028 30.29040282 27.875 26.75 C25.00868128 18.49697886 21.22443359 14.92639706 13.39916992 11.01074219 C12.13762999 10.43279926 10.87290366 9.86177302 9.60546875 9.296875 C8.92503006 8.99179016 8.24459137 8.68670532 7.54353333 8.37237549 C6.11205566 7.73401341 4.67914145 7.09886379 3.24487305 6.46679688 C1.07177356 5.50410821 -1.08974688 4.51811445 -3.25195312 3.53125 C-16.35385614 -2.33018971 -26.80359471 -4.08185485 -37.125 7.75 Z " fill="#FFFFFF" transform="translate(833.125,214.25)"/>
<path d="M0 0 C2.79628419 1.36198325 3.85849718 2.54510652 6 5 C8.37935049 12.22775656 5.10733101 18.4746293 2.5390625 25.30078125 C2.06787074 26.5858717 1.59803284 27.8714593 1.12948608 29.15751648 C-0.10242807 32.52714049 -1.35316038 35.88947312 -2.60784912 39.25067139 C-3.88342599 42.67896816 -5.1397939 46.11428744 -6.3984375 49.54882812 C-8.23719837 54.55598649 -10.08278039 59.56053047 -11.94287109 64.55981445 C-12.31672943 65.56462357 -12.69058777 66.56943268 -13.07577515 67.60469055 C-14 70 -14 70 -15 72 C-21.12186873 71.72173324 -25.58921886 69.38220929 -30.9765625 66.56640625 C-34.90876543 64.52917967 -38.9321871 62.74628332 -43 61 C-42.40213103 56.96792414 -41.11214171 54.02436924 -39.11328125 50.484375 C-38.51112793 49.40937744 -37.90897461 48.33437988 -37.28857422 47.22680664 C-36.31041748 45.50578735 -36.31041748 45.50578735 -35.3125 43.75 C-34.6376516 42.55425517 -33.96334233 41.35820591 -33.28955078 40.16186523 C-32.2468703 38.31098244 -31.20354087 36.46049201 -30.15740967 34.61155701 C-27.7552309 30.36176383 -25.3999662 26.08856548 -23.06640625 21.80078125 C-22.44531982 20.66737305 -21.8242334 19.53396484 -21.18432617 18.36621094 C-20.00107 16.20566277 -18.82513379 14.04108541 -17.6574707 11.87207031 C-13.50581935 4.34662072 -9.70515308 -2.16091299 0 0 Z M-8.43212891 6.67553711 C-12.08625796 12.40813276 -15.42860838 18.25106949 -18.625 24.25 C-24.56433775 35.27506131 -30.74017876 46.15433972 -37 57 C-34.16381276 60.02903529 -31.28787585 61.45992149 -27.5 63.1875 C-26.3553125 63.71730469 -25.210625 64.24710938 -24.03125 64.79296875 C-21.07926141 66.18497264 -21.07926141 66.18497264 -18 66 C-17.60731934 64.93265625 -17.21463867 63.8653125 -16.81005859 62.765625 C-15.32325176 58.72475156 -13.83578696 54.68412057 -12.34814453 50.64355469 C-11.70995012 48.90989462 -11.07192344 47.17617279 -10.43408203 45.44238281 C-9.81442526 43.75808739 -9.1944103 42.07392371 -8.57403564 40.38989258 C-7.95693369 38.71319829 -7.34133279 37.03595079 -6.72723389 35.3581543 C-5.25169929 31.33802816 -3.74821949 27.33455579 -2.16503906 23.35546875 C-1.8799649 22.62924316 -1.59489075 21.90301758 -1.30117798 21.15478516 C-0.76822883 19.80254085 -0.22524615 18.45418906 0.32974243 17.11083984 C1.79698506 13.36275823 2.37155895 10.84070859 1 7 C-0.87673539 4.78026744 -0.87673539 4.78026744 -3.75 4.3125 C-6.99968342 4.65516232 -6.99968342 4.65516232 -8.43212891 6.67553711 Z " fill="#FFFFFF" transform="translate(868,146)"/>
<path d="M0 0 C2.375 0.3125 2.375 0.3125 5 1 C5.66 1.99 6.32 2.98 7 4 C9.00120436 4.31765149 11.00730096 4.6304797 13.02734375 4.7890625 C15 5 15 5 18 6 C17.50168276 9.68754757 16.89932357 11.60490662 14 14 C14.825 14.680625 15.65 15.36125 16.5 16.0625 C19 19 19 19 19.3125 22.8125 C19.209375 23.864375 19.10625 24.91625 19 26 C15.06329512 27.31223496 12.87511856 26.24296256 9 25 C8.87625 25.78375 8.7525 26.5675 8.625 27.375 C8 30 8 30 6 32 C3.375 32.125 3.375 32.125 1 32 C0.67 31.01 0.34 30.02 0 29 C-1.216875 29.495 -2.43375 29.99 -3.6875 30.5 C-6.92486738 31.72479441 -9.50099357 32.32803185 -13 32 C-13.33 30.68 -13.66 29.36 -14 28 C-12.35 27.34 -10.7 26.68 -9 26 C-9.474375 25.443125 -9.94875 24.88625 -10.4375 24.3125 C-12.95905259 20.58060217 -13 17.45115392 -13 13 C-11.36368108 11.95107762 -9.69514137 10.95093297 -8 10 C-7.67 9.01 -7.34 8.02 -7 7 C-6.01 6.67 -5.02 6.34 -4 6 C-3.34 6.33 -2.68 6.66 -2 7 C-1.34 4.69 -0.68 2.38 0 0 Z M7 11 C7 11.99 7 12.98 7 14 C7.66 13.01 8.32 12.02 9 11 C8.34 11 7.68 11 7 11 Z M-4 13 C-5.63676257 14.9600281 -5.63676257 14.9600281 -7 17 C-6.28436734 19.0162233 -6.28436734 19.0162233 -5 21 C-2.94999129 21.80528889 -2.94999129 21.80528889 -1 22 C-1 21.01 -1 20.02 -1 19 C-1.66 18.67 -2.32 18.34 -3 18 C-2.67 16.35 -2.34 14.7 -2 13 C-2.66 13 -3.32 13 -4 13 Z M3 23 C4 26 4 26 4 26 Z " fill="#FFFFFF" transform="translate(762,184)"/>
<path d="M0 0 C1.32 0.66 2.64 1.32 4 2 C4 4.64 4 7.28 4 10 C4.928125 9.95875 5.85625 9.9175 6.8125 9.875 C10 10 10 10 13 12 C12.731875 13.19625 12.46375 14.3925 12.1875 15.625 C11.84719821 18.1886068 11.71121248 19.4971306 13.01171875 21.76171875 C14.29253565 23.21869385 15.64450505 24.61223136 17 26 C17.495 27.485 17.495 27.485 18 29 C17.01 29.66 16.02 30.32 15 31 C13.35 29.68 11.7 28.36 10 27 C9.7525 27.639375 9.505 28.27875 9.25 28.9375 C8 31 8 31 6 31.5625 C5.34 31.706875 4.68 31.85125 4 32 C3.34 32.99 2.68 33.98 2 35 C1.484375 34.731875 0.96875 34.46375 0.4375 34.1875 C-2.16624706 32.87061199 -2.16624706 32.87061199 -5.6875 31.625 C-9 30 -9 30 -9.9375 27.8125 C-9.958125 27.214375 -9.97875 26.61625 -10 26 C-12.31 26 -14.62 26 -17 26 C-18 23 -18 23 -16.5 19.9375 C-15.7575 18.4834375 -15.7575 18.4834375 -15 17 C-15.33 16.34 -15.66 15.68 -16 15 C-16.13415472 12.3276379 -16.04318541 9.67749512 -16 7 C-14.3125 6.3125 -14.3125 6.3125 -12 6 C-9.25 7.4375 -9.25 7.4375 -7 9 C-6.773125 8.2575 -6.54625 7.515 -6.3125 6.75 C-4.75592468 3.48860409 -2.91481146 2.07105025 0 0 Z M2 20 C1.67 21.65 1.34 23.3 1 25 C-0.65 24.67 -2.3 24.34 -4 24 C-2.68 25.32 -1.36 26.64 0 28 C2.03241727 27.36020151 2.03241727 27.36020151 4 26 C4.81171228 23.44480079 4.81171228 23.44480079 5 21 C4.01 20.67 3.02 20.34 2 20 Z " fill="#FFFFFF" transform="translate(713,167)"/>
<path d="M0 0 C1.58294782 -0.05437607 3.16644256 -0.09296271 4.75 -0.125 C5.63171875 -0.14820313 6.5134375 -0.17140625 7.421875 -0.1953125 C10.15405993 0.01167121 11.72019273 0.50242908 14 2 C14.9375 4.3125 14.9375 4.3125 15 7 C13.5625 9.6875 13.5625 9.6875 12 12 C12 12.66 12 13.32 12 14 C12.969375 14.5775 13.93875 15.155 14.9375 15.75 C18 18 18 18 18.875 21.25 C18.91625 22.1575 18.9575 23.065 19 24 C13.70837367 28.51344598 8.96087357 31.17132457 2 32 C0.02875621 30.15325582 -0.92166769 28.61679438 -1.26367188 25.92382812 C-1.33228137 23.36032795 -1.30979473 20.81369922 -1.25 18.25 C-1.24484375 17.38117188 -1.2396875 16.51234375 -1.234375 15.6171875 C-1.17094801 10.33689053 -0.75347687 5.22572669 0 0 Z " fill="#111111" transform="translate(1942,226)"/>
<path d="M0 0 C0.66 0 1.32 0 2 0 C2.12375 1.5159375 2.12375 1.5159375 2.25 3.0625 C2.74422127 6.42854757 3.88561952 8.85860167 5.67578125 11.7734375 C7.50609327 14.85095329 9.16961353 18.0076274 10.8125 21.1875 C11.13879395 21.79408447 11.46508789 22.40066895 11.80126953 23.02563477 C14.06830709 27.44910778 14.06830709 27.44910778 13.69921875 30.42578125 C13.46847656 30.94527344 13.23773437 31.46476562 13 32 C11.1875 31.875 11.1875 31.875 9 31 C7.04679411 27.79116175 6 25.7794561 6 22 C2.04 22 -1.92 22 -6 22 C-6.66 25.3 -7.32 28.6 -8 32 C-8.66 32 -9.32 32 -10 32 C-12.08686522 27.82626956 -11.19150489 23.62058113 -9.86328125 19.31640625 C-9.36120513 18.05907173 -8.84381916 16.8077592 -8.3125 15.5625 C-8.04211914 14.91015381 -7.77173828 14.25780762 -7.49316406 13.58569336 C-5.41351346 8.69071271 -3.1469964 4.28341177 0 0 Z " fill="#0F0F0F" transform="translate(1871,226)"/>
<path d="M0 0 C0.66 0.33 1.32 0.66 2 1 C1.8125 2.8125 1.8125 2.8125 1 5 C-2.20519925 7.40389944 -5.05372236 8.43624605 -9 9 C-9 5.7 -9 2.4 -9 -1 C-5.20720018 -2.26426661 -3.65934648 -1.40145184 0 0 Z " fill="#E9E9E9" transform="translate(1954,244)"/>
<path d="M0 0 C2.95839355 -0.02689449 5.91654427 -0.04678741 8.875 -0.0625 C9.71675781 -0.07087891 10.55851562 -0.07925781 11.42578125 -0.08789062 C12.23144531 -0.09111328 13.03710938 -0.09433594 13.8671875 -0.09765625 C14.98262939 -0.10551147 14.98262939 -0.10551147 16.12060547 -0.11352539 C18 0 18 0 20 1 C19.67 1.99 19.34 2.98 19 4 C16.39555652 4.05394705 13.79223002 4.09364469 11.1875 4.125 C10.44951172 4.14175781 9.71152344 4.15851563 8.95117188 4.17578125 C5.08753574 4.21074628 3.29096332 4.19397555 0 2 C0 1.34 0 0.68 0 0 Z " fill="#0B0B0B" transform="translate(1902,236)"/>
<path d="M0 0 C2.43757413 -0.02698422 4.87484915 -0.04683099 7.3125 -0.0625 C8.00279297 -0.07087891 8.69308594 -0.07925781 9.40429688 -0.08789062 C12.5483025 -0.10307906 14.99420019 -0.00193327 18 1 C17.67 1.99 17.34 2.98 17 4 C11.39 4 5.78 4 0 4 C0 2.68 0 1.36 0 0 Z " fill="#1B1B1B" transform="translate(1904,245)"/>
<path d="M0 0 C2.31 0.66 4.62 1.32 7 2 C6.62403791 4.78211944 6.32681541 6.5879284 4.5625 8.8125 C3 10 3 10 1 10 C-0.1577506 6.52674819 -0.06866652 3.63932552 0 0 Z " fill="#EEEEEE" transform="translate(1945,228)"/>
<path d="M0 0 C2 1 2 1 2.6328125 2.84765625 C2.79523438 3.57855469 2.95765625 4.30945313 3.125 5.0625 C3.29257813 5.79597656 3.46015625 6.52945313 3.6328125 7.28515625 C3.75398438 7.85105469 3.87515625 8.41695312 4 9 C1.36 9.33 -1.28 9.66 -4 10 C-3.43454163 6.04179141 -2.19097652 3.3340947 0 0 Z " fill="#E9E9E9" transform="translate(1871,235)"/>
</svg>
